<svg width="16" height="17" viewBox="0 0 16 17" fill="none" xmlns="http://www.w3.org/2000/svg">
<path d="M13 5.87678H10.5V8.37678H9.25119V0.87439H1.7512V9.33667C1.37118 9.55579 1.05551 9.87104 0.835887 10.2508C0.616265 10.6305 0.500426 11.0613 0.5 11.5V16.5024H4.2512V13.3768H6.75119V16.5024H15.5V8.38394C15.5009 8.05504 15.437 7.72918 15.3118 7.42503C15.1865 7.12089 15.0025 6.84445 14.7703 6.61154C14.5381 6.37864 14.2621 6.19385 13.9584 6.06776C13.6546 5.94168 13.3289 5.87678 13 5.87678ZM8 5.87678H6.1256V7.75118H4.87441V5.87678H3V4.62558H4.87441V2.75118H6.1256V4.62558H8V5.87678ZM13.6256 13.9952H9.8744V12.7512H13.6328L13.6256 13.9952ZM13.6256 11.4952H9.8744V10.2512H13.6328L13.6256 11.4952ZM13.6256 8.99521H11.7512V7.75118H13.6328L13.6256 8.99521Z" fill="#03050F"/>
</svg>
